M48
;DRILL file {KiCad 4.0.7} date 05/09/18 21:29:38
;FORMAT={3:3/ absolute / metric / suppress leading zeros}
FMAT,2
METRIC,TZ
T1C0.400
T2C0.800
T3C0.900
T4C1.200
T5C1.400
T6C1.800
T7C2.000
%
G90
G05
M71
T1
X62865Y-61595
X72390Y-64770
X74930Y-64770
X81915Y-65405
X84455Y-64135
X95885Y-63500
X96520Y-62865
X100330Y-67945
X100965Y-67310
X116205Y-74295
X116840Y-73660
X128905Y-111125
X131445Y-108585
X131445Y-111125
X133350Y-108585
X134620Y-108585
X136525Y-106680
X138430Y-100330
X140970Y-97790
X142875Y-106045
X145415Y-106045
T2
X66040Y-45720
X66040Y-53340
X66040Y-55880
X66040Y-63500
X68580Y-45720
X68580Y-53340
X68580Y-55880
X68580Y-63500
X71120Y-45720
X71120Y-53340
X71120Y-55880
X71120Y-63500
X96520Y-66040
X96520Y-76200
X96520Y-86360
X96520Y-96520
X96520Y-106680
X106680Y-66040
X106680Y-76200
X106680Y-86360
X106680Y-96520
X106680Y-106680
X127000Y-91440
X127000Y-101600
X134620Y-96520
X134620Y-99060
X134620Y-101600
X134620Y-104140
X137160Y-83820
X137160Y-109220
X137200Y-90170
X139660Y-83820
X139660Y-109220
X139700Y-90170
X142240Y-96520
X142240Y-99060
X142240Y-101600
X142240Y-104140
X144145Y-107950
X144145Y-110450
T3
X88900Y-66040
X88900Y-76200
X88900Y-86360
X88900Y-96520
X88900Y-106680
X91440Y-66040
X91440Y-76200
X91440Y-86360
X91440Y-96520
X91440Y-106680
X120342Y-82877
X123190Y-80010
X125730Y-88265
X128578Y-85398
X134620Y-71120
X140008Y-76508
T4
X76280Y-58420
X78780Y-63460
X81280Y-58420
X152400Y-106680
X154940Y-106680
X157480Y-106680
X160020Y-106680
T5
X79375Y-49530
X84375Y-49530
X89375Y-49530
X94375Y-49530
X102870Y-49530
X107870Y-49530
X112870Y-49530
X117870Y-49530
X126365Y-49530
X131365Y-49530
X136365Y-49530
X141365Y-49530
X149860Y-49530
X154860Y-49530
X159860Y-49530
X164860Y-49530
X165100Y-58420
X165100Y-63420
X165100Y-68420
X165100Y-73420
X165100Y-81280
X165100Y-86280
X165100Y-91280
X165100Y-96280
T6
X73660Y-68880
X73660Y-73080
X73660Y-77280
X73660Y-81480
X73660Y-85680
X73660Y-89880
X73660Y-94080
X73660Y-98280
X73660Y-102480
X73660Y-106680
X79160Y-68880
X79160Y-73080
X79160Y-77280
X79160Y-81480
X79160Y-85680
X79160Y-89880
X79160Y-94080
X79160Y-98280
X79160Y-102480
X79160Y-106680
T7
X86995Y-84455
T0
M30
