G04 #@! TF.FileFunction,Soldermask,Bot*
%FSLAX46Y46*%
G04 Gerber Fmt 4.6, Leading zero omitted, Abs format (unit mm)*
G04 Created by KiCad (PCBNEW 4.0.7) date 05/09/18 21:29:34*
%MOMM*%
%LPD*%
G01*
G04 APERTURE LIST*
%ADD10C,0.100000*%
%ADD11C,2.200000*%
%ADD12R,3.400000X3.400000*%
%ADD13C,3.400000*%
%ADD14R,2.000000X2.000000*%
%ADD15C,2.000000*%
%ADD16R,2.200000X2.200000*%
%ADD17C,2.200000*%
%ADD18R,2.400000X3.000000*%
%ADD19O,2.400000X3.000000*%
%ADD20O,2.000000X2.000000*%
%ADD21C,2.900000*%
%ADD22R,2.400000X4.000000*%
%ADD23O,2.400000X4.000000*%
%ADD24R,4.000000X2.400000*%
%ADD25O,4.000000X2.400000*%
%ADD26C,2.600000*%
G04 APERTURE END LIST*
D10*
G36*
X133064365Y-71120000D02*
X134620000Y-69564365D01*
X136175635Y-71120000D01*
X134620000Y-72675635D01*
X133064365Y-71120000D01*
X133064365Y-71120000D01*
G37*
D11*
X140008154Y-76508154D02*
X140008154Y-76508154D01*
D12*
X73660000Y-106680000D03*
D13*
X73660000Y-102480000D03*
X73660000Y-98280000D03*
X73660000Y-94080000D03*
X73660000Y-89880000D03*
X73660000Y-85680000D03*
X73660000Y-81480000D03*
X73660000Y-77280000D03*
X73660000Y-73080000D03*
X73660000Y-68880000D03*
X79160000Y-106680000D03*
X79160000Y-102480000D03*
X79160000Y-98280000D03*
X79160000Y-94080000D03*
X79160000Y-89880000D03*
X79160000Y-85680000D03*
X79160000Y-81480000D03*
X79160000Y-77280000D03*
X79160000Y-73080000D03*
X79160000Y-68880000D03*
X66360000Y-106680000D03*
X66360000Y-68880000D03*
D14*
X137160000Y-83820000D03*
D15*
X139660000Y-83820000D03*
D14*
X144145000Y-107950000D03*
D15*
X144145000Y-110450000D03*
D14*
X137160000Y-109220000D03*
D15*
X139660000Y-109220000D03*
D14*
X139700000Y-90170000D03*
D15*
X137200000Y-90170000D03*
D16*
X91440000Y-66040000D03*
D17*
X88900000Y-66040000D03*
D16*
X91440000Y-76200000D03*
D17*
X88900000Y-76200000D03*
D16*
X91440000Y-86360000D03*
D17*
X88900000Y-86360000D03*
D16*
X91440000Y-96520000D03*
D17*
X88900000Y-96520000D03*
D16*
X91440000Y-106680000D03*
D17*
X88900000Y-106680000D03*
D10*
G36*
X121634365Y-80010000D02*
X123190000Y-78454365D01*
X124745635Y-80010000D01*
X123190000Y-81565635D01*
X121634365Y-80010000D01*
X121634365Y-80010000D01*
G37*
D11*
X128578154Y-85398154D02*
X128578154Y-85398154D01*
D10*
G36*
X127285635Y-88265000D02*
X125730000Y-89820635D01*
X124174365Y-88265000D01*
X125730000Y-86709365D01*
X127285635Y-88265000D01*
X127285635Y-88265000D01*
G37*
D11*
X120341846Y-82876846D02*
X120341846Y-82876846D01*
D18*
X160020000Y-106680000D03*
D19*
X157480000Y-106680000D03*
X154940000Y-106680000D03*
X152400000Y-106680000D03*
D15*
X127000000Y-91440000D03*
D20*
X127000000Y-101600000D03*
D15*
X106680000Y-66040000D03*
D20*
X96520000Y-66040000D03*
D15*
X106680000Y-76200000D03*
D20*
X96520000Y-76200000D03*
D15*
X106680000Y-86360000D03*
D20*
X96520000Y-86360000D03*
D15*
X106680000Y-96520000D03*
D20*
X96520000Y-96520000D03*
D15*
X106680000Y-106680000D03*
D20*
X96520000Y-106680000D03*
D14*
X66040000Y-53340000D03*
D20*
X71120000Y-45720000D03*
X68580000Y-53340000D03*
X68580000Y-45720000D03*
X71120000Y-53340000D03*
X66040000Y-45720000D03*
D14*
X66040000Y-63500000D03*
D20*
X71120000Y-55880000D03*
X68580000Y-63500000D03*
X68580000Y-55880000D03*
X71120000Y-63500000D03*
X66040000Y-55880000D03*
D14*
X142240000Y-104140000D03*
D20*
X134620000Y-96520000D03*
X142240000Y-101600000D03*
X134620000Y-99060000D03*
X142240000Y-99060000D03*
X134620000Y-101600000D03*
X142240000Y-96520000D03*
X134620000Y-104140000D03*
D21*
X78780000Y-63460000D03*
X76280000Y-58420000D03*
X81280000Y-58420000D03*
D22*
X79375000Y-49530000D03*
D23*
X84375000Y-49530000D03*
X89375000Y-49530000D03*
X94375000Y-49530000D03*
D22*
X102870000Y-49530000D03*
D23*
X107870000Y-49530000D03*
X112870000Y-49530000D03*
X117870000Y-49530000D03*
D22*
X126365000Y-49530000D03*
D23*
X131365000Y-49530000D03*
X136365000Y-49530000D03*
X141365000Y-49530000D03*
D22*
X149860000Y-49530000D03*
D23*
X154860000Y-49530000D03*
X159860000Y-49530000D03*
X164860000Y-49530000D03*
D24*
X165100000Y-58420000D03*
D25*
X165100000Y-63420000D03*
X165100000Y-68420000D03*
X165100000Y-73420000D03*
D24*
X165100000Y-81280000D03*
D25*
X165100000Y-86280000D03*
X165100000Y-91280000D03*
X165100000Y-96280000D03*
D26*
X62230000Y-43815000D03*
X62230000Y-109855000D03*
X170815000Y-43815000D03*
X170815000Y-109855000D03*
M02*
